# xmcd
# Track frame offsets:
# 150
# 13529
# 31657
# 47980
# 59602
# 71314
# 87813
# 103612
# 122371
# 138131
#
# Disc length: 2059 seconds
# Revision: 0
# Processed by: cddbd v1.4PL0 Copyright (c) Steve Scherf et al.
# Submitted via: VisiTrax 2.9.5.180 - For more info visit www.synapsa.com
#
DISCID=7608090a
DTITLE=Various Artist - New Countr vol. 19 Feb-Mar. 2003
DYEAR=2003
DGENRE=
TTITLE0=Texarkana - You got me
TTITLE1=Porch Junkies - Tribute to the hills
TTITLE2=Jim Arp - Touched by an angel
TTITLE3=Russell Lynch - Good ol' boys to come home to
TTITLE4=Lee Browning - Redneck beach
TTITLE5=Paul Miller - Middle aged man
TTITLE6=Becky McLean - It's really over
TTITLE7=Mike randolph - Cry all night
TTITLE8=C D Morris - Country rhythm rock
TTITLE9=Floyd Flowers - Bad side
EXTD=
EXTT0=
EXTT1=
EXTT2=
EXTT3=
EXTT4=
EXTT5=
EXTT6=
EXTT7=
EXTT8=
EXTT9=
PLAYORDER=
